<svg id="Layer_1" data-name="Layer 1" xmlns="http://www.w3.org/2000/svg" viewBox="0 0 745.28 214.57"><defs><style>.cls-1{fill:#003374;}</style></defs><title>logo_navy</title><path class="cls-1" d="M291.88,33c3.75-5.74,8.34-9,14.27-10.42,15.62-3.8,27.81,5,28.29,21,.41,13.93.1,27.88.2,41.81,0,1.83-.77,2.07-2.26,2-3.41-.07-6.83-.14-10.24,0-2.06.1-2.36-.77-2.36-2.55.07-11.89,0-23.78,0-35.68a25.7,25.7,0,0,0-.95-7.5,9.23,9.23,0,0,0-7.21-6.91C301.05,32.53,292,37.61,291.9,49.51c-.09,11.59-.12,23.19.06,34.79,0,2.92-.94,3.38-3.86,3.08a43.51,43.51,0,0,0-8.15,0c-2.37.21-2.91-.51-2.9-2.61.07-18.91,0-37.82,0-56.73,0-10.72,0-21.45,0-32.17,0-1.92.47-2.59,2.59-2.44a71.81,71.81,0,0,0,9.84,0c2.07-.15,2.45.51,2.44,2.31-.08,11.59,0,23.19,0,34.79Z" transform="translate(-4.5 6.57)"/><path class="cls-1" d="M382.66,58.49c-7,0-14,0-21,0-1.73,0-2.35.31-2.17,2.27,1.19,13.49,13,20.67,25.54,15.46a9.92,9.92,0,0,0,6.16-6.57c.57-2,1.62-2,4-1.79a40.4,40.4,0,0,0,8.08-.08c2.79-.28,2.81.61,2.3,2.52-2.14,8.1-7.32,13.42-15.08,16.11a39.44,39.44,0,0,1-25.26.52c-10.58-3.33-17.48-10.58-20-21.34-2.81-12.21-1.52-23.87,7.14-33.74,10.29-11.71,30.86-13.49,43.09-3.81,6.24,4.93,9.25,11.66,10.33,19.32.41,2.88.32,5.83.58,8.73.16,1.89-.45,2.51-2.41,2.48C396.88,58.42,389.77,58.49,382.66,58.49Zm-6.89-10c4.57,0,9.15,0,13.72,0,.87,0,1.88.38,1.94-1.3.21-6-4.27-12.31-10.07-13.92C371.1,30.46,362.52,35.69,360,46.24c-.43,1.79-.22,2.4,1.77,2.34C366.42,48.45,371.1,48.54,375.77,48.54Z" transform="translate(-4.5 6.57)"/><path class="cls-1" d="M18.68,182.62c12.42-6.17,25.83-9.14,36.28-19.83,41.59-42.57,83.94-84.4,126.12-126.38,3.17-3.16,3.32-4.9-.87-8.12a46.91,46.91,0,0,1-9-9c-3.22-4.3-4.85-3.69-7.76-.76Q123.25,58.95,82.86,99.15,69.42,112.59,56,126a17.16,17.16,0,0,1-3.09,2.7c-2.31,1.39-4.65.79-6.4-1.45a4.28,4.28,0,0,1-.46-4.55,17.58,17.58,0,0,1,3.41-4.07Q103.32,64.73,157.23,10.85a13.78,13.78,0,0,1,19.47,0c4.58,4.57,9.2,9.1,13.71,13.74a11.66,11.66,0,0,1-.12,16.36q-68.43,68.51-136.91,137a13.75,13.75,0,0,1-4.57,2.95c-11.83,4.86-23.67,9.68-35.48,14.58-2.55,1-4.94,1.63-7.18-.58s-1.89-4.51-.88-7.15q7-18.34,13.8-36.77c1.27-3.46,3.24-5.89,7.09-4.36,3.57,1.43,3.47,4.46,2.2,7.71Q23.8,166,19.51,177.79C19,179.13,17.9,180.42,18.68,182.62Z" transform="translate(-4.5 6.57)"/><path class="cls-1" d="M237.49,53.77c0-5.75-.05-11.51,0-17.25,0-1.61-.38-2.2-2.09-2.19-2.09,0-4.8,1-6.13-.49s-.27-4.11-.42-6.24v-.29c0-4.1,0-4.1,4.23-4.1,5.36,0,4.15,0,4.42-8.28,0-1.21,0-2.42-.07-3.63-.1-1.64.24-2.35,2.05-2.27a75,75,0,0,0,10.49,0c2-.19,2.46.47,2.42,2-.07,3.31,0,6.63,0,9.94,0,1.62.49,2.24,2.16,2.19,3.21-.11,6.44.08,9.65-.07,2-.1,2.52.61,2.39,2.47a49,49,0,0,0,0,6.41c.11,1.79-.44,2.45-2.29,2.38-3.31-.14-6.63,0-9.94-.07-1.55,0-2,.51-2,2,.05,10.72-.07,21.44.08,32.16.09,6.18,3.21,8.4,10,7.6C267,75.6,267,75.6,267,80.21v2c0,5.2,0,5.26-5.07,5.91A33.58,33.58,0,0,1,252,88.1c-9.1-1.55-14.18-7.59-14.48-17.38-.17-5.65,0-11.3,0-16.95Z" transform="translate(-4.5 6.57)"/><path class="cls-1" d="M571.82,199.14c-8.56,9.37-18.4,10.38-29,7.28-7.53-2.21-11.42-7.71-12.09-15.49-.63-7.45,1.94-13.36,8.5-17.26,6.77-4,14.33-4.8,22-5.16,2.83-.13,5.66-.07,8.49,0,1.31,0,1.95-.37,1.78-1.79a11.35,11.35,0,0,1,0-1.75c.23-10.89-5.89-14.09-16.42-12a9,9,0,0,0-7,7.16c-.56,2.78-2.06,2.46-5.3,2.2a38.68,38.68,0,0,0-6.89.15c-2.47.23-2.78-.68-2.42-2.55,1.74-8.91,7.12-14.52,15.65-17.13a39.6,39.6,0,0,1,21.35-.51c10,2.43,15.51,9.33,15.83,20.72.38,13.92.09,27.85.16,41.78,0,1.77-.76,2.05-2.56,1.93a72,72,0,0,0-9.74,0c-1.94.14-2.51-.46-2.38-2.16C571.92,203,571.82,201.49,571.82,199.14Zm-.34-16.32a12.61,12.61,0,0,1,0-2c.39-2.44-.58-3.25-3-3s-4.66,0-7,.11c-3.89.21-7.78.54-11.31,2.39a8.47,8.47,0,0,0-4.74,8.37c.1,3.24,1.16,5.88,4.23,7.41C559.63,201,571.44,193.84,571.48,182.82Z" transform="translate(-4.5 6.57)"/><path class="cls-1" d="M637.84,171.08c.15-9.68,5-20.53,17.43-26.38s25-5.07,36.42,3.25c7.24,5.28,10.85,12.86,11.78,21.65a40,40,0,0,1-1.36,16.47c-4.42,13.89-17.38,22.59-32.61,21.85C650.22,207,637.81,194,637.84,171.08Zm15.26,3.28A27.44,27.44,0,0,0,655.47,187c3.08,6.38,8.37,9.3,15.25,9.34s12.39-2.82,15.24-9.28a30,30,0,0,0,.06-24.91c-2.76-6.39-8.13-9.26-14.9-9.36s-12.27,2.67-15.49,9A25.88,25.88,0,0,0,653.1,174.36Z" transform="translate(-4.5 6.57)"/><path class="cls-1" d="M361.48,197.16c-6.89,9.89-16,12.15-26.41,10.05-9.36-1.89-15.13-9-15.72-19.24-.74-12.94-.18-25.9-.29-38.86-.06-6.59,0-6.61,6.67-6.58,2.62,0,6.12-.88,7.63.45,1.74,1.52.52,5.11.54,7.79.07,9.94,0,19.88,0,29.81,0,.49,0,1,0,1.46.1,9.37,3.89,13.78,12,13.9,9.09.15,15.38-5.44,15.5-14.18.17-12.08.13-24.16,0-36.24,0-2.41.53-3.23,3-3.06,3.3.23,6.63.11,9.94,0,1.42,0,2.09.26,2.08,1.9q-.06,30.1,0,60.21c0,1.77-.48,2.46-3.33,1.95a25.44,25.44,0,0,0-8.35,0c-2.66.4-3.39-.06-3.3-1.92C361.56,202.45,361.48,200.22,361.48,197.16Z" transform="translate(-4.5 6.57)"/><path class="cls-1" d="M412.62,207.94c-5.1-.12-10.12-.64-14.83-2.77-6.85-3.11-10.74-8.43-11.84-15.86-.28-1.84-.08-2.85,2.13-2.74,3.16.15,6.32.12,9.48,0,1.5,0,2.19.35,2.5,1.92a10.39,10.39,0,0,0,8.45,8.11,20.71,20.71,0,0,0,10.68-.69,6.91,6.91,0,0,0,4.8-6.65,6.58,6.58,0,0,0-4.14-6.75c-3.74-1.79-7.83-2.27-11.84-3a74.15,74.15,0,0,1-10.13-2.7c-14-4.64-13.24-23.08-4.66-29.92,8.76-7,25.81-7.86,35-1.38,4.68,3.3,6.92,8,7.9,13.48.39,2.18-1.39,1.51-5.11,1.19a29.65,29.65,0,0,0-6.58.32c-1.76.25-1.94-.65-2.35-1.72-2.68-7-13.24-9.43-18.85-4.4a6.49,6.49,0,0,0,1.55,10.88c4,1.87,8.44,2.25,12.74,3.05a58.78,58.78,0,0,1,9,2.32c6.48,2.32,10.8,6.5,11.49,13.65.8,8.24-1.21,15.3-8.81,19.82C424.1,207.17,418.4,207.78,412.62,207.94Z" transform="translate(-4.5 6.57)"/><path class="cls-1" d="M450.35,173c0-5.65-.05-11.31,0-17,0-1.7-.3-2.35-2.24-2.35a6.51,6.51,0,0,1-6.4-6.56c0-4.57,0-4.57,4.63-4.57,4,0,4,0,4-4,0-2.73,0-5.46,0-8.19,0-1.28.21-2,1.77-2,3.71.12,7.41.22,11.11,0,1.61-.09,2.1.45,2.07,1.88-.06,3.22.08,6.44,0,9.65-.09,2,.46,2.79,2.58,2.67,3.22-.16,6.45,0,9.67-.07a1.91,1.91,0,0,1,2,2,63,63,0,0,0,0,7c.13,1.92-.72,2.27-2.4,2.22-3.31-.1-6.63,0-9.94,0-1.37,0-1.87.4-1.87,1.82.06,10.91-.07,21.83.13,32.74.1,5.66,3.2,7.85,9.2,7.34,1.71-.14,4-1.55,4.9-.45s.38,3.54.39,5.38c0,7.06,0,6.68-8.2,7.21a29.8,29.8,0,0,1-4.91,0c-10.37-1.11-16.06-7.26-16.34-17.76-.15-5.65,0-11.31,0-17Z" transform="translate(-4.5 6.57)"/><path class="cls-1" d="M602.53,174c0-6.72-.06-12.27,0-17.82,0-1.77-.26-2.55-2.33-2.55-6.2,0-6.2-.08-6.2-6.4a4.73,4.73,0,0,1,4.7-4.73c5,0,3.4.8,3.91-6.57a25.76,25.76,0,0,0-.08-4.81c-.3-2.59.43-3.06,3.32-2.65a28.29,28.29,0,0,0,8.42,0c2.71-.44,3.27.16,3.22,2-.09,3.11.09,6.24-.07,9.34-.1,2.08.37,3,2.69,2.81,3.2-.23,6.42,0,9.64-.08,1.35,0,2,.36,1.81,1.8a2.8,2.8,0,0,0,0,.29c-.07,2.91.95,6.69-.5,8.48s-5.46.55-8.34.6c-5.25.1-5.26,0-5.26,5.39q0,13.14,0,26.29c0,9,3.13,11.71,11.86,9.78,2.74-.61,2.89.26,2.77,2.38a32.54,32.54,0,0,0,0,5.84c.33,2.56-.86,3.35-3.14,3.75a33.42,33.42,0,0,1-13.33,0c-7.34-1.67-11.83-6.65-12.76-14.11C602.08,186.28,602.77,179.55,602.53,174Z" transform="translate(-4.5 6.57)"/><path class="cls-1" d="M290.08,159.92c0-14.8.06-29.6-.07-44.39,0-2.46.82-2.9,3-2.78a76.92,76.92,0,0,0,9.11,0c2.54-.15,2.89,1.07,2.87,3.45-.1,13.33,0,26.67,0,40,0,15.87,0,31.74,0,47.61,0,2.19-.42,3.16-2.87,3a64.76,64.76,0,0,0-9.24,0c-2.23.15-2.85-.47-2.83-2.72C290.13,189.32,290.08,174.62,290.08,159.92Z" transform="translate(-4.5 6.57)"/><path class="cls-1" d="M275,159.61c0,14.62-.09,29.23.07,43.85,0,2.89-.92,3.49-3.68,3.25a68.78,68.78,0,0,0-8.85,0c-1.91.08-2.38-.63-2.36-2.48.1-7.5,0-15,0-22.5,0-22,0-44.05,0-66.07,0-2.22.37-3.19,3-2.92a52.64,52.64,0,0,0,9.14,0c2.15-.17,2.7.42,2.69,2.41C274.92,130,275,144.8,275,159.61Z" transform="translate(-4.5 6.57)"/><path class="cls-1" d="M728.67,153.19c3.5-5.14,7.62-9.14,13.73-10.77,7.18-1.92,7.17-2,7.16,5.39,0,2.33.67,5.06-.31,6.89s-4.08.72-6.22,1.14c-10,1.93-14.26,6.85-14.33,17q-.12,15.63,0,31.25c0,2.25-.66,2.82-3.28,2.55a40,40,0,0,0-8.68,0c-2.35.27-3-.2-3-2.1q.07-29.92,0-59.86c0-1.88.54-2.47,3.14-2.12a30.14,30.14,0,0,0,8.64,0c2.8-.44,3.23.3,3.17,2.11C728.6,147.54,728.67,150.37,728.67,153.19Z" transform="translate(-4.5 6.57)"/><path class="cls-1" d="M504.74,154c1.25-1.81,2-3,2.86-4.15,3.95-5.43,9.5-7.79,16-8.36,1.38-.12,2.17.08,2.11,1.79-.12,3.41-.11,6.82,0,10.22,0,1.62-.67,1.94-2.09,2a31.32,31.32,0,0,0-4.92.5c-9.28,1.63-13.75,6.69-13.9,16.17-.17,10.61-.13,21.23,0,31.83,0,2.23-.6,2.86-2.76,2.73a83.15,83.15,0,0,0-9.34,0c-2.14.12-2.83-.47-2.81-2.72.13-9.93.06-19.86.06-29.79,0-9.64.09-19.27-.06-28.91,0-2.37.7-3,2.94-2.84,3.2.18,6.43.13,9.63,0,1.74-.07,2.43.36,2.32,2.24C504.62,147.54,504.74,150.37,504.74,154Z" transform="translate(-4.5 6.57)"/><path class="cls-1" d="M245.05,174.52c0,9.83-.07,19.67.06,29.5,0,2.47-.75,2.94-3.48,2.66a42.06,42.06,0,0,0-8.32,0c-2.26.22-3.11,0-3.1-2q.07-30.09,0-60.18c0-1.7.44-2.33,3.61-1.68a18,18,0,0,0,7.73,0c4.21-1,3.48.84,3.48,2.26Q245.07,159.76,245.05,174.52Z" transform="translate(-4.5 6.57)"/><path class="cls-1" d="M246.25,123.4a8.81,8.81,0,1,1-8.8-8.54A8.57,8.57,0,0,1,246.25,123.4Z" transform="translate(-4.5 6.57)"/></svg>