<svg id="Layer_1" data-name="Layer 1" xmlns="http://www.w3.org/2000/svg" viewBox="0 0 764.69 220.16"><defs><style>.cls-1{fill:#fbd029;}</style></defs><title>logo_yellow</title><path class="cls-1" d="M298.41,29.8c3.84-5.88,8.55-9.21,14.64-10.69,16-3.89,28.54,5.11,29,21.54.42,14.29.1,28.6.2,42.9,0,1.87-.79,2.12-2.32,2.09-3.5-.08-7-.15-10.5,0-2.12.11-2.43-.79-2.42-2.62.06-12.2,0-24.4,0-36.6a26.38,26.38,0,0,0-1-7.7,9.47,9.47,0,0,0-7.39-7.09c-10.9-2.32-20.18,2.9-20.28,15.1-.1,11.9-.13,23.8.05,35.7,0,3-1,3.47-4,3.16a44.06,44.06,0,0,0-8.36,0c-2.43.22-3-.52-3-2.68.07-19.4,0-38.81,0-58.21,0-11,0-22,0-33,0-2,.48-2.66,2.66-2.51a72.29,72.29,0,0,0,10.09,0c2.13-.15,2.52.53,2.5,2.37-.07,11.9,0,23.8,0,35.7Z" transform="translate(-3.54 10.79)"/><path class="cls-1" d="M391.56,56c-7.2,0-14.39.05-21.59,0-1.78,0-2.4.31-2.23,2.32C369,72.11,381.07,79.48,394,74.12a10.17,10.17,0,0,0,6.33-6.73c.57-2.06,1.65-2.08,4.12-1.84a41,41,0,0,0,8.29-.08c2.86-.29,2.88.62,2.36,2.58-2.2,8.32-7.51,13.77-15.48,16.54a40.5,40.5,0,0,1-25.92.53c-10.85-3.42-17.92-10.85-20.47-21.9-2.88-12.52-1.57-24.49,7.33-34.62,10.55-12,31.66-13.84,44.21-3.9,6.39,5.06,9.48,12,10.59,19.82.42,2.95.33,6,.59,9,.18,1.93-.45,2.57-2.46,2.54C406.15,55.9,398.85,56,391.56,56Zm-7.08-10.21c4.7,0,9.39,0,14.08,0,.9,0,1.93.38,2-1.34.22-6.14-4.38-12.62-10.33-14.27-10.53-2.93-19.34,2.44-21.94,13.26-.44,1.83-.23,2.46,1.82,2.4C374.89,45.67,379.69,45.76,384.48,45.76Z" transform="translate(-3.54 10.79)"/><path class="cls-1" d="M18.09,183.33C30.84,177,44.59,174,55.32,163,98,119.31,141.44,76.39,184.72,33.31c3.26-3.24,3.41-5-.89-8.33a48.5,48.5,0,0,1-9.28-9.27c-3.3-4.42-5-3.79-8-.78q-41.2,41.51-82.65,82.76-13.78,13.78-27.58,27.56A17.53,17.53,0,0,1,53.2,128c-2.38,1.43-4.77.82-6.57-1.49a4.36,4.36,0,0,1-.47-4.66,17.77,17.77,0,0,1,3.49-4.18Q104.94,62.38,160.25,7.09a14.14,14.14,0,0,1,20,0c4.7,4.69,9.43,9.34,14.06,14.1A12,12,0,0,1,194.17,38Q124,108.25,53.69,178.49a13.92,13.92,0,0,1-4.68,3c-12.14,5-24.29,9.93-36.41,14.95-2.61,1.08-5.07,1.67-7.36-.59s-1.94-4.63-.91-7.34q7.18-18.82,14.16-37.73c1.31-3.54,3.33-6,7.28-4.47,3.66,1.47,3.56,4.58,2.26,7.92q-4.68,12-9.09,24.11C18.44,179.75,17.3,181.08,18.09,183.33Z" transform="translate(-3.54 10.79)"/><path class="cls-1" d="M242.6,51.12c0-5.9,0-11.8,0-17.7,0-1.65-.39-2.25-2.14-2.24-2.15,0-4.93,1-6.29-.51s-.28-4.22-.43-6.4c0-.09,0-.2,0-.3,0-4.2,0-4.2,4.33-4.2,5.5,0,4.26,0,4.54-8.5,0-1.24,0-2.48-.07-3.72-.1-1.68.25-2.42,2.11-2.32a77.14,77.14,0,0,0,10.75,0c2.06-.19,2.53.48,2.49,2.11-.07,3.39.05,6.8,0,10.19-.05,1.67.5,2.3,2.22,2.25,3.29-.11,6.6.08,9.89-.08,2-.09,2.59.64,2.46,2.54a49.82,49.82,0,0,0,0,6.58c.12,1.84-.45,2.51-2.35,2.44-3.39-.14-6.8,0-10.2-.07-1.59-.05-2,.52-2,2.06.05,11-.08,22,.08,33,.09,6.34,3.29,8.61,10.26,7.8,4.66-.55,4.66-.55,4.66,4.18v2.1c0,5.33,0,5.39-5.2,6.06a34.66,34.66,0,0,1-10.17-.06c-9.34-1.59-14.54-7.79-14.85-17.83-.18-5.8,0-11.6,0-17.4Z" transform="translate(-3.54 10.79)"/><path class="cls-1" d="M585.64,200.28c-8.79,9.61-18.89,10.65-29.73,7.47-7.73-2.27-11.72-7.91-12.4-15.89-.65-7.64,2-13.71,8.72-17.72,6.94-4.13,14.7-4.91,22.53-5.28,2.9-.14,5.81-.08,8.71,0,1.34,0,2-.39,1.83-1.84a13.5,13.5,0,0,1,0-1.8c.25-11.17-6-14.46-16.84-12.32a9.21,9.21,0,0,0-7.14,7.35c-.57,2.85-2.11,2.53-5.44,2.26a40.72,40.72,0,0,0-7.07.15c-2.53.24-2.85-.69-2.48-2.62,1.79-9.13,7.3-14.89,16.06-17.57a40.83,40.83,0,0,1,21.9-.53c10.23,2.51,15.92,9.58,16.24,21.27.39,14.28.1,28.57.17,42.86,0,1.82-.78,2.11-2.63,2a72.55,72.55,0,0,0-10,0c-2,.14-2.57-.48-2.43-2.22C585.74,204.27,585.64,202.69,585.64,200.28Zm-.35-16.75a13.24,13.24,0,0,1,0-2.09c.4-2.5-.6-3.34-3.1-3.09s-4.79,0-7.17.1c-4,.23-8,.56-11.61,2.46a8.69,8.69,0,0,0-4.86,8.59c.1,3.32,1.19,6,4.34,7.6C573.12,202.19,585.25,194.84,585.29,183.53Z" transform="translate(-3.54 10.79)"/><path class="cls-1" d="M653.38,171.49c.15-9.93,5.16-21.06,17.88-27.07s25.67-5.2,37.37,3.34c7.43,5.42,11.13,13.2,12.09,22.21a41.16,41.16,0,0,1-1.4,16.9c-4.53,14.25-17.83,23.18-33.46,22.42C666.08,208.34,653.34,195,653.38,171.49ZM669,174.85a28.13,28.13,0,0,0,2.42,13c3.17,6.55,8.59,9.55,15.65,9.59s12.72-2.9,15.64-9.52a30.89,30.89,0,0,0,.07-25.56c-2.84-6.55-8.35-9.51-15.3-9.6s-12.58,2.73-15.89,9.21A26.48,26.48,0,0,0,669,174.85Z" transform="translate(-3.54 10.79)"/><path class="cls-1" d="M369.82,198.25c-7.07,10.15-16.42,12.47-27.09,10.31-9.61-1.94-15.53-9.27-16.14-19.74-.76-13.28-.18-26.58-.3-39.87-.05-6.76,0-6.78,6.85-6.75,2.68,0,6.27-.91,7.83.46,1.78,1.56.53,5.24.55,8,.07,10.2,0,20.39,0,30.59v1.5c.1,9.61,4,14.13,12.3,14.26,9.32.15,15.78-5.59,15.9-14.55.17-12.4.14-24.79,0-37.19,0-2.47.54-3.31,3.09-3.13,3.38.23,6.8.11,10.19,0,1.46,0,2.15.28,2.14,2q-.07,30.88,0,61.77c0,1.82-.49,2.52-3.42,2a26.5,26.5,0,0,0-8.57,0c-2.72.42-3.47-.06-3.38-2C369.9,203.67,369.82,201.39,369.82,198.25Z" transform="translate(-3.54 10.79)"/><path class="cls-1" d="M422.29,209.31c-5.23-.12-10.38-.65-15.21-2.85-7-3.19-11-8.65-12.15-16.27-.29-1.88-.08-2.92,2.18-2.81,3.24.16,6.49.13,9.73,0,1.54,0,2.25.36,2.57,2a10.68,10.68,0,0,0,8.67,8.32A21.2,21.2,0,0,0,429,197a7.08,7.08,0,0,0,4.93-6.81c.2-3.31-1.37-5.55-4.25-6.93-3.83-1.84-8-2.33-12.15-3.08a76.65,76.65,0,0,1-10.4-2.77c-14.32-4.76-13.58-23.68-4.78-30.7,9-7.18,26.49-8.06,35.9-1.42,4.8,3.39,7.1,8.22,8.11,13.84.4,2.24-1.44,1.55-5.25,1.22a30,30,0,0,0-6.75.33c-1.81.25-2-.67-2.42-1.77-2.74-7.17-13.57-9.67-19.33-4.51a6.65,6.65,0,0,0,1.59,11.16c4.13,1.92,8.66,2.31,13.07,3.13a59.2,59.2,0,0,1,9.27,2.38c6.66,2.38,11.09,6.66,11.8,14,.81,8.46-1.25,15.7-9.05,20.34C434.07,208.52,428.23,209.15,422.29,209.31Z" transform="translate(-3.54 10.79)"/><path class="cls-1" d="M461,173.42c0-5.8-.06-11.6,0-17.4,0-1.75-.3-2.42-2.29-2.42a6.67,6.67,0,0,1-6.57-6.73c0-4.68,0-4.68,4.75-4.68,4.08,0,4.08,0,4.08-4.13,0-2.8,0-5.6,0-8.4,0-1.32.21-2.06,1.81-2,3.8.12,7.61.22,11.4,0,1.65-.1,2.15.46,2.12,1.93-.06,3.3.09,6.6-.05,9.9-.09,2,.48,2.86,2.65,2.74,3.3-.17,6.61,0,9.92-.07a2,2,0,0,1,2,2.06,63.87,63.87,0,0,0,0,7.19c.13,2-.74,2.33-2.46,2.28-3.4-.11-6.8,0-10.2-.05-1.41,0-1.92.41-1.92,1.86.06,11.2-.07,22.4.13,33.6.11,5.8,3.29,8.05,9.45,7.53,1.75-.15,4.13-1.59,5-.46s.39,3.62.4,5.51c0,7.25,0,6.86-8.42,7.4a29.14,29.14,0,0,1-5,0c-10.64-1.14-16.48-7.45-16.77-18.22-.15-5.8,0-11.6,0-17.4Z" transform="translate(-3.54 10.79)"/><path class="cls-1" d="M617.15,174.49c0-6.89-.06-12.59,0-18.28,0-1.81-.27-2.62-2.39-2.61-6.36,0-6.37-.08-6.37-6.57a4.85,4.85,0,0,1,4.82-4.85c5.18,0,3.5.82,4-6.75a26.19,26.19,0,0,0-.08-4.93c-.32-2.66.44-3.14,3.4-2.72a29.1,29.1,0,0,0,8.64,0c2.79-.45,3.36.17,3.31,2-.09,3.2.09,6.4-.07,9.59-.11,2.13.37,3,2.76,2.88,3.28-.24,6.59,0,9.88-.08,1.39,0,2.09.37,1.86,1.84,0,.1,0,.2,0,.3-.07,3,1,6.86-.51,8.7s-5.6.56-8.56.62c-5.39.1-5.39,0-5.39,5.53v27c0,9.21,3.22,12,12.18,10,2.81-.62,3,.28,2.84,2.45a32.39,32.39,0,0,0,0,6c.33,2.63-.89,3.44-3.23,3.85a34.38,34.38,0,0,1-13.67,0c-7.54-1.72-12.14-6.83-13.09-14.48C616.69,187.08,617.39,180.18,617.15,174.49Z" transform="translate(-3.54 10.79)"/><path class="cls-1" d="M296.56,160c0-15.19.06-30.37-.07-45.55,0-2.52.84-3,3.05-2.84a83.15,83.15,0,0,0,9.34-.06c2.61-.15,3,1.1,2.95,3.54-.11,13.68-.05,27.36-.05,41.05,0,16.28,0,32.56,0,48.84,0,2.25-.42,3.24-2.94,3a68.17,68.17,0,0,0-9.48,0c-2.29.15-2.92-.48-2.9-2.79C296.61,190.2,296.56,175.12,296.56,160Z" transform="translate(-3.54 10.79)"/><path class="cls-1" d="M281.05,159.72c0,15-.09,30,.07,45,0,3-.94,3.58-3.77,3.34a70.7,70.7,0,0,0-9.09,0c-2,.09-2.44-.64-2.42-2.54.1-7.7,0-15.4,0-23.1,0-22.59,0-45.19,0-67.78,0-2.28.38-3.27,3.11-3a54.41,54.41,0,0,0,9.38,0c2.2-.17,2.77.43,2.76,2.48C281,129.33,281.05,144.53,281.05,159.72Z" transform="translate(-3.54 10.79)"/><path class="cls-1" d="M746.57,153.13c3.59-5.27,7.82-9.37,14.09-11,7.36-2,7.36-2,7.34,5.53,0,2.39.69,5.2-.32,7.07s-4.18.74-6.38,1.17c-10.21,2-14.62,7-14.7,17.5q-.12,16,0,32.06c0,2.31-.67,2.89-3.36,2.61a41.47,41.47,0,0,0-8.91,0c-2.41.27-3.09-.21-3.09-2.16q.07-30.71,0-61.42c0-1.92.55-2.53,3.22-2.17a30.66,30.66,0,0,0,8.87,0c2.88-.44,3.32.31,3.25,2.18C746.5,147.34,746.57,150.24,746.57,153.13Z" transform="translate(-3.54 10.79)"/><path class="cls-1" d="M516.81,154c1.28-1.86,2.08-3.08,2.93-4.26,4.06-5.57,9.75-8,16.43-8.58,1.42-.12,2.23.09,2.17,1.84-.12,3.49-.11,7,0,10.49,0,1.66-.68,2-2.14,2a33.12,33.12,0,0,0-5.05.51c-9.52,1.68-14.11,6.87-14.26,16.6-.18,10.89-.13,21.78,0,32.66,0,2.29-.61,2.93-2.83,2.8a85.22,85.22,0,0,0-9.59,0c-2.19.12-2.9-.48-2.87-2.79.13-10.19.06-20.38.06-30.57,0-9.89.08-19.77-.06-29.66,0-2.43.72-3.05,3-2.92,3.28.19,6.59.14,9.88,0,1.78-.07,2.5.37,2.38,2.3C516.69,147.34,516.81,150.24,516.81,154Z" transform="translate(-3.54 10.79)"/><path class="cls-1" d="M250.36,175c0,10.09-.08,20.18.06,30.27,0,2.54-.77,3-3.57,2.72a43.52,43.52,0,0,0-8.54,0c-2.32.22-3.19,0-3.18-2.1q.08-30.87,0-61.74c0-1.75.44-2.4,3.69-1.73a18.81,18.81,0,0,0,7.94,0c4.31-1,3.57.86,3.57,2.31Q250.38,159.89,250.36,175Z" transform="translate(-3.54 10.79)"/><path class="cls-1" d="M251.59,122.57a9,9,0,1,1-9-8.77A8.81,8.81,0,0,1,251.59,122.57Z" transform="translate(-3.54 10.79)"/></svg>