<svg id="Layer_1" data-name="Layer 1" xmlns="http://www.w3.org/2000/svg" viewBox="0 0 196.16 196.52"><defs><style>.cls-1{fill:#fbd029;}</style></defs><title>logo-icon</title><path class="cls-1" d="M16.62,184c12.88-6.39,26.78-9.47,37.62-20.56,43.12-44.13,87-87.5,130.76-131,3.29-3.27,3.44-5.07-.9-8.41a48.74,48.74,0,0,1-9.38-9.38c-3.33-4.46-5-3.82-8-.78Q125,55.78,83.16,97.47q-13.93,13.94-27.87,27.85a18,18,0,0,1-3.19,2.8c-2.4,1.44-4.83.82-6.65-1.51A4.43,4.43,0,0,1,45,121.9a17.94,17.94,0,0,1,3.53-4.22Q104.39,61.79,160.27,5.93a14.28,14.28,0,0,1,20.19,0c4.75,4.74,9.53,9.44,14.21,14.24a12.09,12.09,0,0,1-.13,17q-70.93,71-141.95,142a14.11,14.11,0,0,1-4.73,3.06c-12.26,5-24.54,10-36.79,15.11-2.64,1.1-5.12,1.69-7.44-.6s-2-4.67-.92-7.41Q10,170.26,17,151.16c1.32-3.59,3.36-6.11,7.35-4.52,3.7,1.48,3.59,4.62,2.28,8Q21.94,166.77,17.48,179C17,180.4,15.82,181.74,16.62,184Z" transform="translate(-1.92 -1.74)"/></svg>